<mxfile host="app.diagrams.net" modified="2023-11-02T03:08:50.688Z" agent="Mozilla/5.0 (Windows NT 10.0; Win64; x64) AppleWebKit/537.36 (KHTML, like Gecko) Chrome/116.0.0.0 Safari/537.36" version="22.0.8" etag="rUXT3M_e604JdPrpReZQ" type="github">
  <diagram name="Page-1" id="XZnBMVdwftm6Yw7DJxyZ">
    <mxGraphModel>
      <root>
        <mxCell id="0" />
        <mxCell id="1" parent="0" />
      </root>
    </mxGraphModel>
  </diagram>
</mxfile>
